HIERARCHY
ROOT hip
{
	OFFSET 0.000000 0.000000 0.000000 
	CHANNELS 6 Xposition Yposition Zposition Xrotation Zrotation Yrotation
	JOINT abdomen
	{
		OFFSET 0.000000 3.402643 0.000000 
		CHANNELS 3 Xrotation Zrotation Yrotation
		JOINT chest
		{
			OFFSET 0.000000 8.438565 -0.680529 
			CHANNELS 3 Xrotation Zrotation Yrotation
			JOINT neck
			{
				OFFSET 0.000000 10.207942 -0.272212 
				CHANNELS 3 Xrotation Zrotation Yrotation
				JOINT head
				{
					OFFSET 0.000000 3.130431 0.000000 
					CHANNELS 3 Xrotation Zrotation Yrotation
					End Site
					{
						OFFSET 0.000000 3.130435 0.000000 
					}
				}
			}
			JOINT lCollar
			{
				OFFSET 3.470700 6.669187 -0.816635 
				CHANNELS 3 Yrotation Zrotation Xrotation
				JOINT lShldr
				{
					OFFSET 3.198488 0.000000 0.000000 
					CHANNELS 3 Zrotation Yrotation Xrotation
					JOINT lForeArm
					{
						OFFSET 10.139888 0.000000 0.000000 
						CHANNELS 3 Yrotation Zrotation Xrotation
						JOINT lHand
						{
							OFFSET 8.370511 0.000000 0.000000 
							CHANNELS 3 Zrotation Yrotation Xrotation
							End Site
							{
								OFFSET 4.083176 0.000000 0.000000 
							}
						}
					}
				}
			}
			JOINT rCollar
			{
				OFFSET -3.470700 6.669187 -0.816635 
				CHANNELS 3 Yrotation Zrotation Xrotation
				JOINT rShldr
				{
					OFFSET -3.198488 0.000000 0.000000 
					CHANNELS 3 Zrotation Yrotation Xrotation
					JOINT rForeArm
					{
						OFFSET -10.139888 0.000000 0.000000 
						CHANNELS 3 Yrotation Zrotation Xrotation
						JOINT rHand
						{
							OFFSET -8.370511 0.000000 0.000000 
							CHANNELS 3 Zrotation Yrotation Xrotation
							End Site
							{
								OFFSET -4.083176 0.000000 0.000000 
							}
						}
					}
				}
			}
		}
	}
	JOINT lThigh
	{
		OFFSET 5.308129 -1.633274 1.361059 
		CHANNELS 3 Xrotation Zrotation Yrotation
		JOINT lShin
		{
			OFFSET -2.041588 -20.007561 0.000000 
			CHANNELS 3 Xrotation Zrotation Yrotation
			JOINT lFoot
			{
				OFFSET 0.000000 -19.190928 -1.224953 
				CHANNELS 3 Xrotation Yrotation Zrotation
				End Site
				{
					OFFSET 0.000000 -2.449906 4.627600 
				}
			}
		}
	}
	JOINT rThigh
	{
		OFFSET -5.308129 -1.633274 1.361059 
		CHANNELS 3 Xrotation Zrotation Yrotation
		JOINT rShin
		{
			OFFSET 2.041588 -20.007561 0.000000 
			CHANNELS 3 Xrotation Zrotation Yrotation
			JOINT rFoot
			{
				OFFSET 0.000000 -19.190928 -1.224953 
				CHANNELS 3 Xrotation Yrotation Zrotation
				End Site
				{
					OFFSET 0.000000 -2.449906 4.627600 
				}
			}
		}
	}
}
MOTION
Frames: 8
Frame Time: 0.033333
-31.252121 28.009420 6.846015 -21.223497 11.925200 29.615641 62.360550 -1.757726 -8.155217 -20.839844 0.000000 0.000000 -25.725403 -3.325526 -35.723721 -2.520848 -1.255046 0.218349 -4.754609 -0.109184 -0.002653 -59.685791 1.614248 -1.646415 -93.112343 -20.672508 8.130476 24.226126 -22.717285 9.019430 4.754609 0.109184 -0.002672 32.869892 -11.552332 -25.645344 71.772461 -5.163975 11.278435 -11.046574 0.261231 19.344488 -58.360054 24.834480 -2.352130 86.846283 5.393629 -4.245755 0.474355 -0.222826 -1.063689 -58.605217 -16.267479 -0.269896 82.748444 -0.605138 6.745852 18.443933 4.329730 2.763510 
-31.281570 28.207933 6.890174 -20.991489 11.441494 29.811090 61.689396 -1.634811 -8.712892 -20.839844 0.000000 0.000000 -27.257389 -4.396945 -34.525391 -2.520848 -1.255046 0.218349 -4.754609 -0.109184 -0.002653 -59.413876 1.819664 -2.054682 -88.660316 -20.254906 9.055355 20.401228 -18.411507 9.517710 4.754609 0.109184 -0.002672 34.809032 -12.968063 -25.289412 77.882591 -5.050272 11.543485 -14.349266 1.115602 18.794094 -58.366459 24.930742 -2.082541 86.216171 4.960808 -4.571965 1.130988 -0.670564 -0.985571 -60.754368 -16.551069 0.065442 83.239311 -0.781163 6.786150 20.853935 4.591800 3.863195 
-31.305923 28.337893 6.918601 -21.037897 11.042583 29.781725 61.128525 -1.584243 -8.976147 -20.839844 0.000000 0.000000 -29.353182 -5.725209 -33.750900 -2.520848 -1.255046 0.218349 -4.754609 -0.109184 -0.002653 -59.446621 2.189126 -2.055927 -83.177528 -20.199781 11.727767 18.878687 -17.380211 11.037612 4.754609 0.109184 -0.002672 36.436935 -13.752165 -25.278845 81.629921 -5.323324 12.438530 -17.421946 1.956065 19.567423 -58.146473 25.367916 -1.707165 85.830521 4.473274 -4.706297 -0.144597 -0.879440 0.490787 -62.873352 -16.434021 0.378859 84.462685 -1.005861 6.521582 16.640230 3.960728 3.555508 
-31.334366 28.390192 6.917594 -21.235781 10.393434 29.631929 60.601337 -1.227807 -8.767015 -20.839844 0.000000 0.000000 -32.438065 -7.444466 -33.467041 -2.520848 -1.255046 0.218349 -4.754609 -0.109184 -0.002653 -59.414219 2.699946 -1.693053 -80.030052 -20.803114 11.932009 17.696795 -18.056620 9.588460 4.754609 0.109184 -0.002672 36.427898 -13.479704 -25.415352 81.576118 -5.568452 12.642252 -19.349051 3.348647 19.712454 -58.447800 25.611233 -1.515728 85.621605 4.140830 -4.648915 -1.721969 -0.769264 1.081556 -64.640724 -16.346369 0.529862 85.789825 -1.035192 6.016579 9.693949 2.976031 2.993838 
-31.347565 28.343981 6.886115 -21.340281 10.229836 29.441202 61.070267 -0.660418 -8.623242 -20.839844 0.000000 0.000000 -36.343323 -8.841110 -33.571346 -2.520848 -1.255046 0.218349 -4.754609 -0.109184 -0.002653 -59.477268 2.949449 -1.382868 -81.143112 -21.467567 9.763234 16.971189 -18.565090 6.867840 4.754609 0.109184 -0.002672 34.404797 -12.373505 -25.357555 77.877190 -5.117165 11.554256 -19.172565 3.871613 18.391016 -58.760624 25.865517 -1.583258 85.814423 4.130757 -4.734756 -2.184194 -0.880221 -0.016459 -64.383392 -16.279047 0.331828 86.107910 -0.888403 5.752185 6.442433 2.473335 1.866083 
-31.268372 28.172388 6.832816 -21.403959 10.738650 29.216608 62.122299 -0.287307 -8.595034 -20.839844 0.000000 0.000000 -39.113510 -9.719185 -34.159351 -2.520848 -1.255046 0.218349 -4.754609 -0.109184 -0.002653 -59.791824 2.643214 -1.298447 -84.036201 -21.507463 8.939425 18.791359 -19.355532 6.844505 4.754609 0.109184 -0.002672 31.969059 -11.167277 -25.241482 73.359474 -4.418674 9.885205 -15.075923 1.315539 16.603165 -58.747337 26.102472 -1.728012 86.593407 4.462374 -4.722698 -2.437580 -0.930438 -1.049531 -61.345917 -16.386372 -0.223621 84.848274 -0.429516 5.895962 9.103951 2.705361 1.192300 
-31.193741 27.955603 6.782050 -21.210104 11.261318 29.188936 62.594509 -0.382711 -8.747331 -20.839844 0.000000 0.000000 -39.153778 -10.018364 -35.129345 -2.520848 -1.255046 0.218349 -4.754609 -0.109184 -0.002653 -60.425407 2.157489 -1.276154 -85.601967 -21.152514 9.157466 20.829895 -20.335733 7.562698 4.754609 0.109184 -0.002672 30.360928 -9.976160 -25.198339 69.679047 -3.930476 8.460833 -10.349890 -1.129145 14.868186 -58.618431 26.150476 -1.708163 87.323181 4.511977 -4.771791 -2.167195 -1.137725 -0.193179 -57.732407 -16.552355 -0.729092 83.515396 -0.156366 6.242977 9.076388 3.221149 1.464982 
-31.167847 27.867773 6.800315 -20.894855 11.312229 29.266573 62.446205 -0.827516 -8.956473 -20.839844 0.000000 0.000000 -37.310467 -9.676767 -36.660641 -2.520848 -1.255046 0.218349 -4.754609 -0.109184 -0.002653 -60.792496 1.319342 -0.998919 -83.729256 -21.006886 10.110518 21.950203 -21.749418 7.538559 4.754609 0.109184 -0.002672 30.329008 -8.941216 -25.142536 67.674187 -3.848454 9.066099 -10.034567 -1.011875 15.907888 -58.760693 26.060677 -1.606685 87.352463 4.336195 -4.703274 -0.165541 -1.071718 0.616021 -56.481510 -16.962137 -1.102045 83.449593 0.166425 6.466955 5.251055 3.480325 -0.275900 
